<svg id="Layer_1" data-name="Layer 1" xmlns="http://www.w3.org/2000/svg" viewBox="0 0 331.2 71.66"><defs><style>.cls-1{fill:#2e3191;}.cls-2{fill:#ec1c24;}.cls-3{fill:#fff;}.cls-4{fill:#41d535;}.cls-5{fill:#fff100;fill-rule:evenodd;}</style></defs><title>logo_antoan1</title><path class="cls-1" d="M94.82,47.3l-.9-2.64H87.58l-1,2.64h-5L88.93,29h3.68L99.88,47.3Zm-4-12.59h-.07L88.86,41h3.83Z"/><path class="cls-1" d="M113.12,47.3l-7-11.12-.06,0,.13,11.1h-4.48V29h4l7.07,11.5.05,0L112.69,29h4.48V47.3Z"/><path class="cls-1" d="M135,33.11V47.3h-4.67V33.11h-3.61V29h11.86v4.1Z"/><path class="cls-1" d="M156.11,44.94a9.94,9.94,0,0,1-13.59.05,8.72,8.72,0,0,1-2.87-6.6,10.56,10.56,0,0,1,.71-3.91,8.5,8.5,0,0,1,1.19-2,9.21,9.21,0,0,1,7.74-3.76,9.39,9.39,0,0,1,6.82,2.73,9.51,9.51,0,0,1,0,13.54Zm-3.19-10.52a4.58,4.58,0,0,0-3.61-1.64,4.65,4.65,0,0,0-3.62,1.59,5.39,5.39,0,0,0-1.38,3.74,5.55,5.55,0,0,0,1.39,3.81,4.66,4.66,0,0,0,3.66,1.63,4.54,4.54,0,0,0,3.56-1.64,5.87,5.87,0,0,0,0-7.49Z"/><path class="cls-1" d="M173.24,47.3l-.89-2.64H166l-1,2.64h-5L167.36,29H171l7.27,18.29Zm-2.07-19.17-6.11-2.66,1.26-2.9,6,3.16Zm-1.93,6.58h-.07L167.28,41h3.84Z"/><path class="cls-1" d="M191.55,47.3l-7-11.12-.06,0,.14,11.1h-4.48V29h4l7.07,11.5.05,0L191.12,29h4.48V47.3Z"/><path class="cls-1" d="M224.68,40.46a9.16,9.16,0,0,1-3.36,5.21,9.77,9.77,0,0,1-12.69-.77,9.54,9.54,0,0,1,0-13.51,9.38,9.38,0,0,1,6.8-2.72,9.09,9.09,0,0,1,8,4.3,7.57,7.57,0,0,1,1.24,3h-4.89a4.44,4.44,0,0,0-4.42-3.18,4.52,4.52,0,0,0-3.56,1.6,5.51,5.51,0,0,0-1.34,3.73,5.61,5.61,0,0,0,1.34,3.77,4.51,4.51,0,0,0,3.59,1.67,4.62,4.62,0,0,0,4.39-3.09Z"/><path class="cls-1" d="M242.77,44.94a10,10,0,0,1-13.6.05,8.76,8.76,0,0,1-2.87-6.6,10.77,10.77,0,0,1,.71-3.91,8.24,8.24,0,0,1,1.2-2,9.2,9.2,0,0,1,7.73-3.76,9.42,9.42,0,0,1,6.83,2.73,9.54,9.54,0,0,1,0,13.54Zm-3.2-10.52a4.84,4.84,0,0,0-7.22-.05A5.39,5.39,0,0,0,231,38.11a5.51,5.51,0,0,0,1.39,3.81A4.62,4.62,0,0,0,236,43.55a4.52,4.52,0,0,0,3.56-1.64,5.87,5.87,0,0,0,0-7.49Z"/><path class="cls-1" d="M256.88,47.3h-4.81L246,29h4.79l3.67,12.83h.06L258.2,29H263Z"/><path class="cls-1" d="M265.06,47.3V29h4.67V47.3Z"/><path class="cls-1" d="M279.18,47.3h-6.4V29h6.06a18.21,18.21,0,0,1,2.37.14,9.94,9.94,0,0,1,2.13.5,7.51,7.51,0,0,1,3.57,2.78,9.41,9.41,0,0,1,1.69,5.68Q288.6,47.31,279.18,47.3Zm3.69-12.74a4.09,4.09,0,0,0-3.39-1.45h-2V43.2h2a4.15,4.15,0,0,0,3.42-1.4,5.56,5.56,0,0,0,1.05-3.62A5.61,5.61,0,0,0,282.87,34.56Z"/><path class="cls-1" d="M289.71,42.19v-4h6.94v4Z"/><path class="cls-1" d="M302.2,47.3V33h-3V29h7.66V47.3Z"/><path class="cls-1" d="M326.29,38.21a11.7,11.7,0,0,1-1.27,2.4l-4.55,6.69h-5.41l4-5.54,0,0a1.73,1.73,0,0,1-.45.08h-.45a5.33,5.33,0,0,1-2.42-.59,5.75,5.75,0,0,1-3.33-5.61,6.62,6.62,0,0,1,2-5,7,7,0,0,1,5.05-2,7.31,7.31,0,0,1,5.76,2.39,6.53,6.53,0,0,1,1.53,4.48A7.68,7.68,0,0,1,326.29,38.21Zm-4.91-4.71a2.46,2.46,0,0,0-1.8-.72,2.49,2.49,0,0,0-1.77.68,2.36,2.36,0,0,0-.75,1.77,2.41,2.41,0,0,0,.72,1.77,2.67,2.67,0,0,0,3.57,0,2.3,2.3,0,0,0,.75-1.75A2.44,2.44,0,0,0,321.38,33.5Z"/><rect class="cls-1" y="2.52" width="66.9" height="66.9" rx="13.07"/><path class="cls-2" d="M66.9,34.22V15.58A13.1,13.1,0,0,0,53.83,2.52h-19Z"/><path class="cls-3" d="M47.64,56.62H15.08a1.34,1.34,0,0,1-1.34-1.34V22.71a1.34,1.34,0,0,1,1.34-1.34H34.94a1.34,1.34,0,1,1,0,2.68H16.42V53.94H46.3V32.4a1.34,1.34,0,1,1,2.68,0V55.28A1.34,1.34,0,0,1,47.64,56.62Z"/><path class="cls-4" d="M23.59,32.17l6.5,7.56S36,27.85,42.15,22.12s8.63-6.21,8.63-6.21,2.71-.82,3.07,2.6c0,0,.41,2.55-2.31,5.2,0,0-6.62,5.62-7.8,7s-6,6.68-8.45,12.29c0,0-1.65,3.43-2.15,4.91,0,0-1.51,3.37-4.05,1.12L21.52,38.31a7,7,0,0,1-.89-3.72S21.11,31.52,23.59,32.17Z"/><polygon class="cls-5" points="57.15 7.87 58.18 11.06 61.54 11.06 58.81 13.02 59.86 16.22 57.15 14.24 54.43 16.22 55.48 13.02 52.76 11.06 56.11 11.06 57.15 7.87 57.15 7.87"/></svg>